<svg width="279" height="129" viewBox="0 0 279 129" fill="none" xmlns="http://www.w3.org/2000/svg">
<path fill-rule="evenodd" clip-rule="evenodd" d="M61.5869 0.011959C85.7427 -0.044841 102.86 9.57487 118.13 23.1091C123.792 28.128 123.616 37.0487 118.628 42.8076C113.666 48.5365 104.864 49.5005 98.6725 44.7262C93.6379 40.8449 88.6395 36.9399 82.9879 33.9847C65.7428 24.9724 45.3815 29.2561 35.3548 43.9831C24.1431 60.4519 29.0957 85.9188 45.5251 94.4357C57.5383 100.666 69.8497 99.5145 81.8692 94.0444C93.1724 88.8977 101.957 80.3871 110.694 71.8671C124.968 57.9448 138.235 43.0222 152.827 29.4154C165.285 17.7983 178.598 7.39438 195.436 3.03341C218.539 -2.94953 240.131 -0.199461 258.506 16.2915C270.204 26.7916 275.481 40.5624 277.501 55.9174C281.553 86.7172 263.307 115.928 233.891 124.92C211.553 131.749 191.017 127.17 172.009 114.309C168.335 111.823 164.805 109.095 161.392 106.256C154.722 100.709 153.854 91.6509 159.212 85.253C164.363 79.1076 173.44 78.3897 180.062 83.7336C186.111 88.6152 192.37 93.1435 199.639 96.0513C219.158 103.857 240.745 94.4009 246.826 75.3461C249.802 66.0215 249.216 56.741 245.461 47.8013C240.029 34.8651 227.798 28.4719 211.741 29.7184C198.522 30.7439 188.039 37.4716 178.424 45.8401C164.419 58.0316 152.066 71.8987 139.021 85.0652C125.7 98.5095 112.371 112.023 94.9395 120.329C78.2356 128.288 60.7585 130.294 43.0606 124.893C17.103 116.973 4.02956 98.2365 0.566334 71.9223C-3.49644 41.0515 14.6322 12.3092 44.2692 3.00974C50.8517 0.947584 57.5983 -0.126885 61.5869 0.011959Z" fill="#0597F2" fill-opacity="0.26"/>
</svg>
