<svg width="363" height="71" viewBox="0 0 363 71" fill="none" xmlns="http://www.w3.org/2000/svg">
<path d="M38.4844 52.0938C38.4844 49.4375 37.5469 47.4062 35.6719 46C33.7969 44.5625 30.4219 43.0625 25.5469 41.5C20.6719 39.9062 16.8125 38.3438 13.9688 36.8125C6.21875 32.625 2.34375 26.9844 2.34375 19.8906C2.34375 16.2031 3.375 12.9219 5.4375 10.0469C7.53125 7.14062 10.5156 4.875 14.3906 3.25C18.2969 1.625 22.6719 0.8125 27.5156 0.8125C32.3906 0.8125 36.7344 1.70312 40.5469 3.48438C44.3594 5.23437 47.3125 7.71875 49.4062 10.9375C51.5312 14.1562 52.5938 17.8125 52.5938 21.9062H38.5312C38.5312 18.7812 37.5469 16.3594 35.5781 14.6406C33.6094 12.8906 30.8438 12.0156 27.2812 12.0156C23.8438 12.0156 21.1719 12.75 19.2656 14.2188C17.3594 15.6562 16.4062 17.5625 16.4062 19.9375C16.4062 22.1562 17.5156 24.0156 19.7344 25.5156C21.9844 27.0156 25.2812 28.4219 29.625 29.7344C37.625 32.1406 43.4531 35.125 47.1094 38.6875C50.7656 42.25 52.5938 46.6875 52.5938 52C52.5938 57.9062 50.3594 62.5469 45.8906 65.9219C41.4219 69.2656 35.4062 70.9375 27.8438 70.9375C22.5938 70.9375 17.8125 69.9844 13.5 68.0781C9.1875 66.1406 5.89062 63.5 3.60938 60.1562C1.35938 56.8125 0.234375 52.9375 0.234375 48.5312H14.3438C14.3438 56.0625 18.8438 59.8281 27.8438 59.8281C31.1875 59.8281 33.7969 59.1562 35.6719 57.8125C37.5469 56.4375 38.4844 54.5312 38.4844 52.0938ZM77.1094 70H63.0469V1.75H77.1094V70ZM144.188 61.375C141.656 64.4062 138.078 66.7656 133.453 68.4531C128.828 70.1094 123.703 70.9375 118.078 70.9375C112.172 70.9375 106.984 69.6562 102.516 67.0938C98.0781 64.5 94.6406 60.75 92.2031 55.8438C89.7969 50.9375 88.5625 45.1719 88.5 38.5469V33.9062C88.5 27.0938 89.6406 21.2031 91.9219 16.2344C94.2344 11.2344 97.5469 7.42188 101.859 4.79688C106.203 2.14062 111.281 0.8125 117.094 0.8125C125.188 0.8125 131.516 2.75 136.078 6.625C140.641 10.4688 143.344 16.0781 144.188 23.4531H130.5C129.875 19.5469 128.484 16.6875 126.328 14.875C124.203 13.0625 121.266 12.1562 117.516 12.1562C112.734 12.1562 109.094 13.9531 106.594 17.5469C104.094 21.1406 102.828 26.4844 102.797 33.5781V37.9375C102.797 45.0938 104.156 50.5 106.875 54.1562C109.594 57.8125 113.578 59.6406 118.828 59.6406C124.109 59.6406 127.875 58.5156 130.125 56.2656V44.5H117.328V34.1406H144.188V61.375ZM211.125 70H197.062L169.688 25.0938V70H155.625V1.75H169.688L197.109 46.75V1.75H211.125V70ZM298.969 1.75V46.7031C298.969 54.1719 296.625 60.0781 291.938 64.4219C287.281 68.7656 280.906 70.9375 272.812 70.9375C264.844 70.9375 258.516 68.8281 253.828 64.6094C249.141 60.3906 246.75 54.5938 246.656 47.2188V1.75H260.719V46.7969C260.719 51.2656 261.781 54.5312 263.906 56.5938C266.062 58.625 269.031 59.6406 272.812 59.6406C280.719 59.6406 284.734 55.4844 284.859 47.1719V1.75H298.969ZM324.562 45.9531V70H310.5V1.75H337.125C342.25 1.75 346.75 2.6875 350.625 4.5625C354.531 6.4375 357.531 9.10938 359.625 12.5781C361.719 16.0156 362.766 19.9375 362.766 24.3438C362.766 31.0312 360.469 36.3125 355.875 40.1875C351.312 44.0312 344.984 45.9531 336.891 45.9531H324.562ZM324.562 34.5625H337.125C340.844 34.5625 343.672 33.6875 345.609 31.9375C347.578 30.1875 348.562 27.6875 348.562 24.4375C348.562 21.0938 347.578 18.3906 345.609 16.3281C343.641 14.2656 340.922 13.2031 337.453 13.1406H324.562V34.5625Z" fill="#E5E5E5"/>
</svg>
